<svg t="1659341456925" class="icon" viewBox="0 0 1024 1024" version="1.1" xmlns="http://www.w3.org/2000/svg" p-id="26442" width="200" height="200"><path d="M512 512m-426.666667 0a426.666667 426.666667 0 1 0 853.333334 0 426.666667 426.666667 0 1 0-853.333334 0Z" fill="#0070CC" p-id="26443"></path><path d="M586.026667 295.466667L612.693333 256a3.413333 3.413333 0 0 0 0-5.12 3.626667 3.626667 0 0 0-5.12 0l-27.306666 39.893333a150.826667 150.826667 0 0 0-59.093334-12.16 149.333333 149.333333 0 0 0-56.32 11.093334l-26.24-38.186667a3.84 3.84 0 0 0-5.12-1.066667 3.413333 3.413333 0 0 0 0 5.12l25.386667 36.693334a130.346667 130.346667 0 0 0-74.453333 98.773333h277.333333a129.493333 129.493333 0 0 0-75.733333-95.573333z m-124.586667 55.466666a13.866667 13.866667 0 1 1 0-27.52 13.866667 13.866667 0 0 1 0 27.52z m118.826667 0a13.866667 13.866667 0 1 1 13.866666-13.866666 13.866667 13.866667 0 0 1-13.866666 13.866666zM334.72 412.8h-6.186667A32 32 0 0 0 301.226667 448v113.28A32 32 0 0 0 328.533333 597.333333h6.186667A32.213333 32.213333 0 0 0 362.666667 561.28V448a32.213333 32.213333 0 0 0-27.946667-35.2zM712.533333 413.44h-6.186666A32.213333 32.213333 0 0 0 679.04 448v113.28A32.213333 32.213333 0 0 0 706.346667 597.333333h6.186666a32.213333 32.213333 0 0 0 27.52-35.2V448a32.213333 32.213333 0 0 0-27.52-34.56zM381.44 634.453333a28.373333 28.373333 0 0 0 28.16 28.16h25.386667v64a32.213333 32.213333 0 0 0 27.306666 35.2H469.333333a32.213333 32.213333 0 0 0 27.52-35.2v-64h51.626667v64A32.426667 32.426667 0 0 0 576 762.453333h5.973333a32.426667 32.426667 0 0 0 27.52-35.413333v-64h23.253334a28.16 28.16 0 0 0 27.946666-28.16V411.093333h-277.333333z" fill="#FFFFFF" p-id="26444"></path></svg>